<svg width="60" height="60" viewBox="0 0 60 60" fill="none" xmlns="http://www.w3.org/2000/svg">
<path fill-rule="evenodd" clip-rule="evenodd" d="M18 18V15C18 10.0294 22.0294 6 27 6H33C37.9706 6 42 10.0294 42 15V18H48C51.3137 18 54 20.6863 54 24V34.7123C46.5289 37.4842 38.4447 38.9998 30.0001 38.9998C21.5554 38.9998 13.4711 37.4842 6 34.7122V24C6 20.6863 8.68629 18 12 18H18ZM24 15C24 13.3431 25.3431 12 27 12H33C34.6569 12 36 13.3431 36 15V18H24V15ZM27 30C27 28.3431 28.3431 27 30 27H30.03C31.6869 27 33.03 28.3431 33.03 30C33.03 31.6569 31.6869 33 30.03 33H30C28.3431 33 27 31.6569 27 30Z" fill="#405DC7"/>
<path d="M6 41.0768V48C6 51.3137 8.68629 54 12 54H48C51.3137 54 54 51.3137 54 48V41.0768C46.4617 43.6213 38.3892 44.9998 30.0001 44.9998C21.6109 44.9998 13.5384 43.6213 6 41.0768Z" fill="#405DC7"/>
</svg>
