<svg width="60" height="60" viewBox="0 0 60 60" fill="none" xmlns="http://www.w3.org/2000/svg">
<path d="M25.3001 22.2535C25.7645 21.9439 26.3382 21.6672 27 21.453L27 26.547C26.3382 26.3328 25.7645 26.0561 25.3001 25.7465C24.2078 25.0183 24 24.3417 24 24C24 23.6583 24.2078 22.9817 25.3001 22.2535Z" fill="#405DC7"/>
<path d="M33.0001 38.547L33 33.453C33.6619 33.6672 34.2355 33.9439 34.6999 34.2535C35.7923 34.9817 36.0001 35.6583 36.0001 36C36.0001 36.3417 35.7923 37.0183 34.6999 37.7465C34.2355 38.0561 33.6619 38.3328 33.0001 38.547Z" fill="#405DC7"/>
<path fill-rule="evenodd" clip-rule="evenodd" d="M30 54C43.2548 54 54 43.2548 54 30C54 16.7452 43.2548 6 30 6C16.7452 6 6 16.7452 6 30C6 43.2548 16.7452 54 30 54ZM33 15C33 13.3431 31.6569 12 30 12C28.3431 12 27 13.3431 27 15V15.276C25.1352 15.6262 23.4104 16.3022 21.9719 17.2612C19.8069 18.7046 18 21.028 18 24C18 26.972 19.8069 29.2954 21.9719 30.7388C23.4104 31.6978 25.1352 32.3738 27 32.724L27.0001 38.5477C25.827 38.1669 24.9575 37.5957 24.47 37.0339C23.3841 35.7824 21.4894 35.6482 20.238 36.7341C18.9865 37.82 18.8523 39.7147 19.9382 40.9661C21.6257 42.9109 24.1787 44.1925 27 44.7229L27 44.9999C27 46.6568 28.3431 48 29.9999 48C31.6568 48 33 46.6569 33 45.0001L33 44.724C34.8648 44.3738 36.5896 43.6978 38.0281 42.7388C40.1932 41.2954 42.0001 38.972 42.0001 36C42.0001 33.028 40.1931 30.7045 38.0281 29.2612C36.5896 28.3022 34.8648 27.6262 33 27.276L33 21.4523C34.173 21.8331 35.0425 22.4043 35.5301 22.9661C36.6159 24.2176 38.5107 24.3518 39.7621 23.2659C41.0135 22.18 41.1477 20.2853 40.0619 19.0339C38.3744 17.0891 35.8214 15.8075 33 15.2771V15Z" fill="#405DC7"/>
</svg>
