<svg width="60" height="60" viewBox="0 0 60 60" fill="none" xmlns="http://www.w3.org/2000/svg">
<path fill-rule="evenodd" clip-rule="evenodd" d="M6.49832 14.9967C15.5231 14.8743 23.7458 11.431 30 5.83337C36.2542 11.431 44.4769 14.8743 53.5017 14.9967C53.8294 16.949 54 18.9546 54 21.0001C54 36.6747 43.9823 50.0095 30 54.9515C16.0177 50.0095 6 36.6747 6 21.0001C6 18.9546 6.17059 16.949 6.49832 14.9967ZM41.1213 26.1213C42.2929 24.9497 42.2929 23.0503 41.1213 21.8787C39.9497 20.7071 38.0503 20.7071 36.8787 21.8787L27 31.7574L23.1213 27.8787C21.9497 26.7071 20.0503 26.7071 18.8787 27.8787C17.7071 29.0503 17.7071 30.9497 18.8787 32.1213L24.8787 38.1213C26.0503 39.2929 27.9497 39.2929 29.1213 38.1213L41.1213 26.1213Z" fill="#405DC7"/>
</svg>
